<svg xmlns="http://www.w3.org/2000/svg" width="24" height="23" fill="none" xmlns:v="https://vecta.io/nano"><g clip-path="url(#A)" fill="#1e66d7"><path d="M7.247 9.665l4.669-4.466 4.671 4.469 2.717-2.599L11.916 0 4.531 7.066l2.716 2.599zM5.329 11.5L2.613 8.901-.104 11.5l2.716 2.599L5.329 11.5zm1.919 1.835l4.668 4.466 4.671-4.469 2.718 2.598-.001.002L11.916 23l-7.385-7.066-.004-.004 2.72-2.595zm13.972.765l2.717-2.599-2.716-2.599-2.716 2.599L21.22 14.1zm-6.549-2.601h.001l-2.756-2.637-2.037 1.949h0l-.234.224-.483.462-.004.004.004.004 2.754 2.635 2.756-2.637.001-.002-.002-.001z"/></g><defs><clipPath id="A"><path fill="#fff" d="M0 0h24v23H0z"/></clipPath></defs></svg>