<svg xmlns="http://www.w3.org/2000/svg" width="28" height="28" fill="none" xmlns:v="https://vecta.io/nano"><path d="M27.58 17.387a14 14 0 0 1-16.967 10.194A14 14 0 0 1 .421 10.615C2.29 3.114 9.886-1.451 17.385.419A14 14 0 0 1 27.58 17.387h0 0z" fill="#1e66d7"/><path d="M20.173 12.005c.279-1.863-1.14-2.865-3.079-3.533l.629-2.524-1.536-.383-.613 2.457-1.231-.29.617-2.473-1.535-.383-.63 2.523-.981-.231.002-.008-2.119-.529-.409 1.641 1.116.277c.622.155.735.567.716.893l-.717 2.875a1.24 1.24 0 0 1 .16.051l-.162-.04-1.005 4.028c-.076.189-.269.473-.704.365.015.022-1.117-.279-1.117-.279L6.812 18.2l1.999.498 1.095.283-.636 2.553 1.535.383.63-2.526 1.224.318-.627 2.514 1.536.383.636-2.548c2.62.496 4.589.296 5.419-2.074.668-1.908-.033-3.008-1.411-3.726 1.004-.232 1.76-.892 1.962-2.256h0 0zm-3.51 4.922c-.475 1.908-3.687.876-4.728.618l.844-3.382c1.041.26 4.381.774 3.885 2.764h0zm.475-4.95c-.433 1.735-3.107.854-3.974.637l.765-3.067c.867.216 3.66.62 3.209 2.43h0z" fill="#fff"/></svg>