<svg xmlns="http://www.w3.org/2000/svg" width="45" height="43" fill="none" xmlns:v="https://vecta.io/nano"><path d="M41.613 20.022c-.285.545-.776 1.276-1.219 1.727H4.749c-.285-.342-.918-1.136-1.171-1.727h38.035zm-2.659 3.501H6.221c.522.622 1.076 1.167 1.678 1.571h29.219c.744-.404 1.409-.949 1.836-1.571zm-4.037 3.235h-8.99c-.253 1.4-.253 2.707-.253 3.64 2.628-.171 6.078-1.338 9.244-3.64zM44.953 8.603c-4.099.249-9.988 2.956-13.802 7.359-.696.793-1.33 1.571-1.82 2.411h13.153c1.804-3.485 2.723-6.954 2.469-9.77zM19.437 30.399c.047-.918.047-2.225-.142-3.64h-9.054c3.229 2.303 6.68 3.469 9.196 3.64zm3.15.28c.95-.964 1.931-2.271 2.802-3.92h-5.635c.95 1.649 1.82 2.956 2.833 3.92zm-6.711-12.321c-.491-.825-1.155-1.618-1.82-2.411C10.241 11.56 4.322 8.837.317 8.604c-.285 2.816.617 6.285 2.374 9.754h13.185zm12.425 0l.174-3.096c0-6.13-2.802-12.446-5.872-15.262-3.102 2.816-5.841 9.132-5.841 15.262 0 1.136 0 2.1.174 3.096h11.365zM41.534 43c1.852 0 3.419-.731 3.419-2.583 0-1.027-.776-1.758-1.963-2.022-1.266-.311-2.833-.28-2.833-1.073.079-.513.554-.653 1.33-.653 1.155 0 1.203.622 1.266.996h1.884c-.143-1.447-1.33-2.442-3.245-2.442-1.994 0-3.15 1.073-3.15 2.411 0 .793.411 1.478 1.092 1.82.475.249 1.155.42 1.963.56.839.062 1.567.14 1.646.731 0 .404-.427.887-1.298.887-1.298 0-1.583-.731-1.583-1.214h-1.994c.032 1.54 1.33 2.583 3.466 2.583zm-8.231-1.758c-1.203 0-2.216-.996-2.216-2.131 0-1.182 1.013-2.178 2.216-2.178 1.156 0 2.121.996 2.121 2.178.016 1.136-.965 2.131-2.121 2.131zm2.137-5.927v.56c-.633-.451-1.361-.669-2.232-.669-2.169 0-3.989 1.727-3.989 3.889 0 2.131 1.82 3.889 3.989 3.889a3.93 3.93 0 0 0 2.232-.669v.482h1.931v-7.498H35.44v.016zm-10.922 5.927c-1.155 0-2.169-.996-2.169-2.131a2.22 2.22 0 0 1 2.169-2.178c1.187 0 2.2.996 2.2 2.178 0 1.136-1.013 2.131-2.2 2.131zm2.2-8.494v3.127c-.665-.451-1.393-.669-2.232-.669-2.216 0-3.957 1.727-3.957 3.889 0 2.131 1.757 3.889 3.957 3.889.839 0 1.599-.249 2.232-.669v.482h1.884V32.732h-1.884v.016z" fill-rule="evenodd" fill="#fff"/><path d="M19.738 32.748h-1.899v1.851h1.899v-1.851zm0 2.567h-1.899v7.499h1.899v-7.499z" fill="#fff"/><path d="M12.837 41.242c-1.266 0-2.279-.996-2.279-2.131 0-1.182 1.013-2.178 2.279-2.178a2.22 2.22 0 0 1 2.169 2.178c0 1.136-1.013 2.131-2.168 2.131zm2.169-8.494v3.127c-.665-.451-1.425-.669-2.279-.669-2.169 0-3.989 1.727-3.989 3.889 0 2.131 1.82 3.889 3.989 3.889.839 0 1.614-.249 2.279-.669v.482h1.931V32.732h-1.931v.016zM3.989 41.242c-1.155 0-2.168-.996-2.168-2.131 0-1.182 1.013-2.178 2.168-2.178 1.266 0 2.279.996 2.279 2.178 0 1.136-1.029 2.131-2.279 2.131zm2.279-5.927v.56c-.665-.451-1.472-.669-2.311-.669C1.789 35.206 0 36.933 0 39.095c0 2.131 1.789 3.889 3.957 3.889a4.27 4.27 0 0 0 2.311-.669v.482H8.12v-7.498H6.268v.016z" fill="#fff" fill-rule="evenodd"/></svg>