<svg xmlns="http://www.w3.org/2000/svg" width="92" height="89" fill="none" xmlns:v="https://vecta.io/nano"><g clip-path="url(#A)" fill="#fff"><path d="M27.674 37.399L45.5 20.115l17.835 17.292L73.707 27.35 45.5 0 17.301 27.342l10.372 10.057zm-7.325 7.099L9.976 34.442-.396 44.499 9.976 54.556l10.373-10.057zm7.325 7.103L45.5 68.885l17.835-17.292 10.378 10.051-.005.006L45.5 89 17.3 61.659l-.014-.014 10.388-10.044zm53.35 2.96l10.373-10.057-10.372-10.057-10.373 10.057 10.372 10.057zM56.021 44.495h.004L45.5 34.289l-7.778 7.542h-.001l-.893.867-1.844 1.788-.015.014.015.015L45.5 54.711l10.525-10.205.005-.006-.009-.005z"/></g><defs><clipPath id="A"><path fill="#fff" d="M0 0h92v89H0z"/></clipPath></defs></svg>